<svg width="67" height="59" viewBox="0 0 67 59" fill="none" xmlns="http://www.w3.org/2000/svg">
<path d="M49.6505 0.000544788C56.5453 -0.0572823 63.0407 4.48957 65.4571 13.1216C65.8352 14.4723 66.0154 15.8437 66.0265 17.2271C66.2766 35.1897 38.0807 54.734 33.4581 57.817C33.3004 57.9248 33.1561 58.0277 33.0216 58.1187C33.0191 58.1171 33.0163 58.1155 33.0138 58.1138C33.0115 58.1153 33.0092 58.1172 33.0069 58.1187C32.8722 58.0276 32.7274 57.925 32.5694 57.817C27.9484 54.735 -0.199445 35.2226 0.00106598 17.274C0.00829151 15.8747 0.189056 14.4876 0.571378 13.1216C2.98777 4.48965 9.48329 -0.0571991 16.378 0.000544788H16.3927C18.6909 0.0197414 21.0335 0.551259 23.2843 1.61285C30.3938 4.96674 32.4586 12.0402 33.0138 14.8658C33.5688 12.0404 35.6346 4.96685 42.7442 1.61285C44.9949 0.551287 47.3376 0.0197685 49.6358 0.000544788H49.6505Z" fill="#FF9EE2"/>
</svg>
